<?xml version="1.0" standalone="no"?>
<!DOCTYPE svg PUBLIC "-//W3C//DTD SVG 20010904//EN"
 "http://www.w3.org/TR/2001/REC-SVG-20010904/DTD/svg10.dtd">
<svg version="1.0" xmlns="http://www.w3.org/2000/svg"
 width="846.000000pt" height="846.000000pt" viewBox="0 0 846.000000 846.000000"
 preserveAspectRatio="xMidYMid meet">
<metadata>
Created by potrace 1.11, written by Peter Selinger 2001-2013
</metadata>
<g transform="translate(0.000000,846.000000) scale(0.100000,-0.100000)"
fill="#000000" stroke="none">
<path d="M299 7901 c-99 -5 -129 -10 -142 -23 -18 -18 -23 -58 -7 -58 6 0 10
-11 10 -25 0 -14 -4 -25 -10 -25 -16 0 -13 -287 3 -293 15 -5 12 -200 -3 -205
-15 -5 -13 -199 2 -204 8 -3 11 -240 12 -937 0 -807 -2 -933 -14 -942 -13 -8
-13 -10 -1 -18 12 -8 14 -49 12 -243 -1 -133 -6 -234 -12 -236 -12 -5 -12 -49
1 -54 15 -5 18 -220 3 -225 -16 -6 -19 -383 -3 -383 6 0 10 -11 10 -25 0 -14
-4 -25 -10 -25 -5 0 -10 -16 -10 -35 0 -19 4 -35 9 -35 17 0 20 -29 6 -44 -13
-12 -15 -70 -15 -350 0 -217 4 -336 10 -336 14 0 12 -47 -2 -54 -10 -5 -10 -7
-1 -12 15 -7 18 -104 3 -104 -6 0 -10 -30 -10 -70 0 -40 4 -70 10 -70 15 0 12
-47 -3 -53 -9 -4 -9 -6 1 -6 14 -1 17 -51 2 -51 -7 0 -10 -168 -10 -485 0
-317 3 -485 10 -485 6 0 10 -7 10 -15 0 -8 -4 -15 -10 -15 -7 0 -10 -198 -10
-573 l0 -574 27 -13 c21 -10 97 -15 293 -17 146 -2 353 -6 460 -8 107 -2 231
-4 275 -4 44 -1 89 -1 100 -2 31 -2 50 -2 375 10 340 12 736 9 766 -6 33 -18
5852 2 5881 20 8 5 17 667 16 1232 0 17 0 1000 -1 2185 -1 3183 -2 3603 -8
3738 -6 115 -8 124 -32 142 -24 20 -62 20 -3946 18 -2156 -1 -3978 -4 -4047
-7z m6356 -82 c864 -1 1575 -4 1581 -6 12 -4 17 -137 15 -363 -1 -80 -2 -197
-1 -260 4 -469 -1 -3696 -6 -3855 -8 -220 -6 -1110 3 -1355 3 -85 5 -172 4
-192 -1 -73 -1 -98 0 -120 1 -13 2 -45 1 -73 -2 -60 -2 -56 -1 -370 2 -329 1
-379 -7 -447 -5 -41 -3 -63 6 -73 8 -10 10 -19 4 -25 -5 -5 -160 -11 -344 -13
-184 -3 -344 -5 -355 -5 -11 -1 -69 -1 -130 -2 -60 0 -202 -2 -315 -5 -382 -8
-1165 -9 -1178 -1 -7 4 -18 3 -25 -3 -8 -6 -66 -8 -157 -5 -178 6 -151 6 -355
3 -93 -1 -179 -1 -190 0 -17 1 -1275 2 -1345 0 -14 0 -77 0 -140 0 -63 0 -131
0 -150 -1 -40 0 -242 0 -375 1 -49 0 -234 0 -410 -1 -238 -1 -330 2 -358 11
-33 11 -47 11 -95 -4 -48 -16 -68 -17 -156 -7 -67 7 -123 7 -166 1 -36 -6 -85
-7 -110 -2 -25 4 -52 6 -60 5 -8 -1 -376 -4 -818 -6 -717 -4 -804 -3 -809 11
-3 9 -2 23 4 32 7 10 8 45 3 91 -5 62 -4 81 12 110 16 33 17 41 4 88 -10 39
-11 66 -4 105 7 38 7 61 -3 87 -14 41 -13 178 2 196 18 22 15 368 -5 447 -9
38 -14 78 -10 90 4 12 8 73 10 137 1 63 5 149 8 190 3 45 0 94 -8 125 -14 54
-11 117 7 153 8 17 8 31 0 55 -8 22 -12 216 -12 612 0 319 -3 594 -7 611 -3
18 0 45 10 69 14 32 15 51 6 124 -6 47 -13 87 -15 89 -2 3 3 22 12 43 10 26
12 44 6 52 -15 19 -10 1015 5 1050 9 22 12 341 10 1310 l-3 1282 40 2 c22 1
1048 4 2280 8 1232 4 2241 7 2242 8 1 1 64 1 140 0 76 -1 845 -3 1708 -4z"/>
</g>
</svg>
